<svg width="45" height="31" viewBox="0 0 45 31" fill="none" xmlns="http://www.w3.org/2000/svg">
<path d="M44.028 4.02964L36.252 8.28127C35.7645 8.48292 35.1506 8.51851 34.6798 8.26094C33.8147 7.46789 33.6184 6.3444 33.2241 5.33275C33.5502 5.11246 34.0909 5.11415 34.4885 4.94809L36.4417 4.01439L43.9082 0H44.0712L44.028 4.02964Z" fill="#1A1A1A"/>
<path d="M29.1632 14.2789C29.1632 14.2789 27.3981 9.58642 26.518 7.341H26.4282C24.9775 10.1541 23.8329 13.0944 22.3822 15.9075C20.5904 17.614 18.1332 17.8682 15.839 18.3783L15.26 18.4495L15.28 18.1732L23.4219 2.62478L23.6399 2.27568L29.7805 2.25195C30.1232 2.80441 30.3744 3.45007 30.6256 4.0754L34.0245 11.6268L29.1632 14.2789Z" fill="#1A1A1A"/>
<path d="M30.8302 18.6846C24.2121 21.945 17.486 25.3546 9.4854 24.7852C6.28784 24.4835 3.0753 22.9313 1.6013 19.7827C-0.0374088 17.0747 0.133949 13.0076 1.96231 10.4725C4.87872 6.22916 9.23751 3.55167 13.756 2.27223C15.3099 1.92653 17.7488 1.23174 18.7936 3.01956C19.2078 4.10581 19.5472 5.21069 19.7635 6.3715C15.9521 6.25288 12.643 7.81023 9.60518 9.82682C7.21616 11.5689 4.79221 13.8464 3.84724 16.6053C3.5744 17.4323 3.71748 18.4439 4.29477 19.0896C6.67547 21.0265 10.2706 20.5181 13.2336 20.2301C18.925 19.3217 24.1373 16.9544 29.1632 14.2786L34.0228 11.6248L43.9498 6.05292H44.058L44.0497 10.947L35.911 15.8427L30.8302 18.6846Z" fill="#1A1A1A"/>
<path d="M35.9111 15.8428C35.9111 15.8428 38.4997 21.8283 39.7225 24.6821L34.2674 24.6703C33.6352 24.6686 33.0396 24.1907 32.8249 23.6179C32.1595 21.9605 31.4408 20.3404 30.8302 18.683L35.9111 15.8428Z" fill="#1A1A1A"/>
<path d="M41.1317 27.1953C41.1267 28.1358 41.125 30.8691 41.125 30.8691H0.450151C0.456805 29.7609 0.448486 27.1953 0.448486 27.1953H41.1317Z" fill="#1A1A1A"/>
</svg>
